<?xml version="1.0" encoding="utf-8"?>
<!-- Generator: Adobe Illustrator 16.0.0, SVG Export Plug-In . SVG Version: 6.00 Build 0)  -->
<!DOCTYPE svg PUBLIC "-//W3C//DTD SVG 1.1//EN" "http://www.w3.org/Graphics/SVG/1.1/DTD/svg11.dtd">
<svg version="1.1" id="Layer_1" xmlns="http://www.w3.org/2000/svg" xmlns:xlink="http://www.w3.org/1999/xlink" x="0px" y="0px"
	 width="595.28px" height="595.28px" viewBox="0 0 595.28 595.28" enable-background="new 0 0 595.28 595.28" xml:space="preserve">
<g>
	<g>
		<path fill="#BE1E2D" d="M187.224,206.721c0.066-0.105,0.137-0.227,0.205-0.34c-0.246-0.115-0.492-0.232-0.732-0.361
			c-0.068,0.168-0.139,0.332-0.209,0.492C186.735,206.576,186.979,206.65,187.224,206.721z"/>
		<path fill="#FFFFFF" d="M298.245,210.475c-0.07,0.166-0.139,0.332-0.209,0.492c0.248,0.064,0.492,0.139,0.736,0.209
			c0.066-0.105,0.137-0.227,0.205-0.34C298.729,210.721,298.485,210.604,298.245,210.475z"/>
		<path fill="#BE1E2D" d="M169.142,172.535c1.303,1.146,2.775,2.104,4.379,2.82c0.453,0.203,0.918,0.381,1.391,0.545
			c1.225,0.422,2.504,0.727,3.834,0.865c0.59,0.061,1.188,0.094,1.793,0.094c0.559,0,1.111-0.031,1.656-0.084
			c1.248-0.119,2.457-0.373,3.613-0.744c0.232-0.076,0.459-0.168,0.689-0.254c2.09-0.771,3.986-1.934,5.609-3.402
			c3.494-3.162,5.705-7.717,5.705-12.791V99.678c0-9.525-7.748-17.275-17.273-17.275c-9.527,0-17.277,7.75-17.277,17.275v59.906
			C163.261,164.742,165.546,169.367,169.142,172.535z"/>
		<path fill="#BE1E2D" d="M164.138,240.822c2.273,6.887,8.76,11.875,16.4,11.875c9.525,0,17.273-7.75,17.273-17.273v-5.855
			c0-8.688-6.451-15.877-14.809-17.08c-0.809-0.115-1.627-0.195-2.465-0.195c-0.264,0-0.52,0.027-0.779,0.039
			c-0.354,0.016-0.707,0.023-1.053,0.061c-0.932,0.098-1.836,0.287-2.717,0.527c-7.322,2.004-12.729,8.699-12.729,16.648v5.855
			c0,0.18,0.021,0.355,0.027,0.533C163.341,237.65,163.63,239.283,164.138,240.822z"/>
		<path fill="#84AF99" d="M280.69,176.99c1.303,1.146,2.773,2.104,4.379,2.82c0.453,0.201,0.916,0.381,1.389,0.543
			c1.225,0.424,2.504,0.729,3.836,0.867c0.59,0.061,1.186,0.094,1.791,0.094c0.561,0,1.113-0.033,1.658-0.084
			c1.248-0.121,2.455-0.373,3.611-0.746c0.234-0.074,0.459-0.166,0.688-0.252c2.092-0.771,3.99-1.932,5.613-3.402
			c3.492-3.162,5.705-7.717,5.705-12.791V115.17c0-9.527-7.75-17.275-17.275-17.275s-17.275,7.748-17.275,17.275v48.869
			C274.81,169.197,277.095,173.822,280.69,176.99z"/>
		<path fill="#84AF99" d="M294.552,216.943c-0.809-0.115-1.627-0.197-2.467-0.197c-0.262,0-0.52,0.029-0.779,0.041
			c-0.361,0.016-0.723,0.025-1.078,0.064c-0.922,0.098-1.816,0.283-2.691,0.523c-7.322,2.004-12.727,8.697-12.727,16.648v5.854
			c0,9.525,7.75,17.275,17.275,17.275c2.688,0,5.225-0.635,7.494-1.734c1.916-0.928,3.635-2.195,5.078-3.73
			c2.906-3.092,4.703-7.24,4.703-11.811v-5.854C309.36,225.336,302.909,218.146,294.552,216.943z"/>
		<path fill="#6188A3" d="M224.858,176.08c1.301,1.148,2.771,2.104,4.377,2.82c0.453,0.203,0.918,0.381,1.391,0.545
			c1.225,0.424,2.504,0.729,3.834,0.865c0.59,0.061,1.188,0.094,1.793,0.094c0.559,0,1.111-0.031,1.656-0.084
			c1.248-0.119,2.457-0.373,3.613-0.744c0.232-0.076,0.459-0.168,0.689-0.252c2.09-0.773,3.986-1.934,5.609-3.402
			c3.494-3.164,5.705-7.719,5.705-12.791V73.26c0-9.525-7.748-17.275-17.273-17.275c-9.527,0-17.275,7.75-17.275,17.275v89.871
			C218.978,168.289,221.261,172.912,224.858,176.08z"/>
		<path fill="#6188A3" d="M236.253,254.156c9.525,0,17.273-7.748,17.273-17.273v-5.855c0-5.855-2.934-11.031-7.404-14.158
			c-0.809-0.566-1.672-1.057-2.574-1.479c-1.119-0.523-2.297-0.938-3.527-1.213c-1.084-0.242-2.207-0.377-3.357-0.404
			c-0.137-0.004-0.271-0.021-0.41-0.021c-0.883,0-1.744,0.088-2.59,0.215c-1.063,0.162-2.09,0.414-3.08,0.76
			c-6.746,2.354-11.605,8.762-11.605,16.301v5.855C218.978,246.408,226.726,254.156,236.253,254.156z"/>
	</g>
	<g>
		<path fill="none" d="M187.224,206.721c0.066-0.105,0.137-0.227,0.205-0.34c-0.246-0.115-0.492-0.232-0.732-0.361
			c-0.068,0.168-0.139,0.332-0.209,0.492C186.735,206.576,186.979,206.65,187.224,206.721z"/>
		<path fill="none" d="M169.142,172.535c1.303,1.146,2.775,2.104,4.379,2.82c0.453,0.203,0.918,0.381,1.391,0.545
			c1.225,0.422,2.504,0.727,3.834,0.865c0.59,0.061,1.188,0.094,1.793,0.094c0.559,0,1.111-0.031,1.656-0.084
			c1.248-0.119,2.457-0.373,3.613-0.744c0.232-0.076,0.459-0.168,0.689-0.254c2.09-0.771,3.986-1.934,5.609-3.402
			c3.494-3.162,5.705-7.717,5.705-12.791V99.678c0-9.525-7.748-17.275-17.273-17.275c-9.527,0-17.277,7.75-17.277,17.275v59.906
			C163.261,164.742,165.546,169.367,169.142,172.535z"/>
		<path fill="none" d="M171.177,181.473c-1.283,2.809-2.445,6.777-2.406,11.965c0.055,6.908,1.732,11.461,3.043,13.984
			c0.365-0.145,0.734-0.279,1.109-0.406c-1.256-3.332-2.334-7.875-2.379-13.779c-0.035-4.461,0.682-8.242,1.689-11.34
			C171.878,181.762,171.526,181.621,171.177,181.473z"/>
		<path fill="none" d="M164.138,240.822c2.273,6.887,8.76,11.875,16.4,11.875c9.525,0,17.273-7.75,17.273-17.273v-5.855
			c0-8.688-6.451-15.877-14.809-17.08c-0.809-0.115-1.627-0.195-2.465-0.195c-0.264,0-0.52,0.027-0.779,0.039
			c-0.354,0.016-0.707,0.023-1.053,0.061c-0.932,0.098-1.836,0.287-2.717,0.527c-7.322,2.004-12.729,8.699-12.729,16.648v5.855
			c0,0.18,0.021,0.355,0.027,0.533C163.341,237.65,163.63,239.283,164.138,240.822z"/>
		<path fill="none" d="M190.653,186.914c-0.582,0.219-1.137,0.504-1.646,0.867c-0.396,0.281-0.77,0.604-1.113,0.967
			c-1.346,1.43-2.055,3.297-1.996,5.26c0.059,1.961,0.879,3.783,2.309,5.129c0.139,0.131,0.283,0.25,0.43,0.369
			c0.418,0.338,0.867,0.627,1.342,0.863c1.006,0.5,2.117,0.768,3.264,0.768c1.24,0,2.424-0.305,3.479-0.873
			c0.688-0.371,1.32-0.85,1.875-1.438c2.777-2.951,2.639-7.611-0.311-10.389c-0.301-0.283-0.625-0.533-0.963-0.76
			c-1.201-0.801-2.607-1.238-4.074-1.238C192.343,186.439,191.47,186.607,190.653,186.914z"/>
		<path fill="none" d="M181.595,183.365c-0.352,0.016-0.703,0.027-1.057,0.027c-0.639,0-1.27-0.033-1.895-0.082
			c-0.906,2.586-1.598,5.863-1.568,9.877c0.045,5.789,1.23,9.924,2.385,12.6c0.051-0.004,0.102-0.002,0.152-0.004
			c0.664-1.223,1.348-2.744,1.904-4.586c-1.316-2.078-2.072-4.471-2.148-6.994c-0.096-3.15,0.867-6.164,2.717-8.658
			C181.937,184.771,181.774,184.041,181.595,183.365z"/>
		<path fill="none" d="M246.368,190.459c-0.582,0.219-1.137,0.506-1.646,0.867c-0.396,0.283-0.77,0.604-1.113,0.967
			c-1.346,1.43-2.055,3.297-1.996,5.26s0.879,3.783,2.309,5.129c0.139,0.131,0.283,0.252,0.43,0.369
			c0.418,0.338,0.867,0.629,1.344,0.865c1.004,0.498,2.115,0.766,3.262,0.766c1.24,0,2.424-0.305,3.479-0.873
			c0.688-0.371,1.32-0.85,1.873-1.438c2.779-2.949,2.641-7.609-0.309-10.387c-0.301-0.285-0.625-0.535-0.963-0.762
			c-1.199-0.801-2.607-1.238-4.074-1.238C248.058,189.984,247.185,190.152,246.368,190.459z"/>
		<path fill="none" d="M236.253,254.156c9.525,0,17.273-7.748,17.273-17.273v-5.855c0-5.855-2.934-11.031-7.404-14.158
			c-0.809-0.566-1.672-1.057-2.574-1.479c-1.119-0.523-2.297-0.938-3.527-1.213c-1.084-0.242-2.207-0.377-3.357-0.404
			c-0.137-0.004-0.271-0.021-0.41-0.021c-0.883,0-1.744,0.088-2.59,0.215c-1.063,0.162-2.09,0.414-3.08,0.76
			c-6.746,2.354-11.605,8.762-11.605,16.301v5.855C218.978,246.408,226.726,254.156,236.253,254.156z"/>
		<path fill="none" d="M237.31,186.91c-0.352,0.016-0.703,0.027-1.057,0.027c-0.639,0-1.268-0.033-1.895-0.082
			c-0.906,2.586-1.598,5.863-1.566,9.877c0.033,4.5,0.75,7.98,1.602,10.566c0.615-0.049,1.232-0.08,1.859-0.08
			c0.027,0,0.057,0.002,0.084,0.002c0.318-0.754,0.621-1.574,0.896-2.479c-1.318-2.076-2.074-4.471-2.15-6.994
			c-0.094-3.148,0.867-6.164,2.717-8.656C237.651,188.316,237.489,187.586,237.31,186.91z"/>
		<path fill="none" d="M226.894,185.018c-1.285,2.811-2.447,6.777-2.406,11.965c0.043,5.559,1.121,9.572,2.219,12.24
			c0.426-0.188,0.857-0.365,1.295-0.527c-0.961-3.107-1.705-7.043-1.742-11.912c-0.035-4.463,0.682-8.244,1.689-11.342
			C227.593,185.309,227.241,185.168,226.894,185.018z"/>
		<path fill="none" d="M224.858,176.08c1.301,1.148,2.771,2.104,4.377,2.82c0.453,0.203,0.918,0.381,1.391,0.545
			c1.225,0.424,2.504,0.729,3.834,0.865c0.59,0.061,1.188,0.094,1.793,0.094c0.559,0,1.111-0.031,1.656-0.084
			c1.248-0.119,2.457-0.373,3.613-0.744c0.232-0.076,0.459-0.168,0.689-0.252c2.09-0.773,3.986-1.934,5.609-3.402
			c3.494-3.164,5.705-7.719,5.705-12.791V73.26c0-9.525-7.748-17.275-17.273-17.275c-9.527,0-17.275,7.75-17.275,17.275v89.871
			C218.978,168.289,221.261,172.912,224.858,176.08z"/>
		<path fill="none" d="M154.206,277.432c1.645-3.605,2.625-7.416,1.846-11.354c-1.121-5.697-3.723-10.777-6.975-15.523
			c-0.828-1.207-1.842-1.553-3.252-1.504c-1.348,0.045-2.766-0.115-4.053-0.518c-4.596-1.439-8.287-4.213-11.158-8.178
			c-5.217-7.213-7.553-15.484-8.014-24.252c-0.281-5.377,0.324-10.799,0.514-16.203c0.387-11.164,0.188-22.301-1.908-33.313
			c-1.17-6.172-2.678-12.234-5.686-17.816c-2.889-5.363-6.582-7.475-12.494-6.885c-3.709,0.369-5.361,2.049-5.33,5.891
			c0.027,3.016,0.447,6.029,0.623,9.047c0.451,7.666,1.068,15.328,1.234,23c0.217,9.969-0.012,19.945,0.092,29.914
			c0.1,10.176,0.25,20.354,0.617,30.521c0.199,5.5,0.715,11.008,1.41,16.465c1.508,11.848,4.434,23.34,8.965,34.375
			c1.26,3.072,2.566,6.127,3.842,9.176c1.021-0.176,1.744-0.301,2.465-0.422c10.383-1.756,20.076-5.283,28.537-11.838
			C149.147,285.174,152.231,281.756,154.206,277.432z"/>
		<path fill="none" d="M293.142,187.82c-0.35,0.016-0.701,0.027-1.057,0.027c-0.637,0-1.268-0.033-1.893-0.082
			c-0.908,2.584-1.6,5.863-1.568,9.877c0.045,5.811,1.221,9.938,2.369,12.6c0.055-0.004,0.111-0.002,0.166-0.006
			c0.666-1.221,1.348-2.742,1.906-4.584c-1.318-2.078-2.074-4.471-2.15-6.994c-0.094-3.15,0.869-6.166,2.717-8.658
			C293.485,189.227,293.321,188.494,293.142,187.82z"/>
		<path fill="none" d="M282.726,185.928c-1.285,2.809-2.445,6.777-2.406,11.965c0.055,6.908,1.73,11.461,3.043,13.984
			c0.365-0.145,0.734-0.281,1.107-0.406c-1.256-3.332-2.334-7.877-2.379-13.779c-0.033-4.463,0.682-8.242,1.691-11.342
			C283.425,186.217,283.073,186.076,282.726,185.928z"/>
		<path fill="none" d="M294.552,216.943c-0.809-0.115-1.627-0.197-2.467-0.197c-0.262,0-0.52,0.029-0.779,0.041
			c-0.361,0.016-0.723,0.025-1.078,0.064c-0.922,0.098-1.816,0.283-2.691,0.523c-7.322,2.004-12.727,8.697-12.727,16.648v5.854
			c0,9.525,7.75,17.275,17.275,17.275c2.688,0,5.225-0.635,7.494-1.734c1.916-0.928,3.635-2.195,5.078-3.73
			c2.906-3.092,4.703-7.24,4.703-11.811v-5.854C309.36,225.336,302.909,218.146,294.552,216.943z"/>
		<path fill="none" d="M302.198,191.371c-0.58,0.217-1.133,0.502-1.645,0.865c-0.396,0.281-0.77,0.604-1.111,0.967
			c-1.346,1.43-2.055,3.297-1.996,5.26c0.059,1.961,0.877,3.783,2.307,5.129c0.139,0.129,0.285,0.25,0.432,0.369
			c0.418,0.338,0.867,0.627,1.342,0.863c1.004,0.5,2.117,0.768,3.264,0.768c1.238,0,2.424-0.307,3.479-0.875
			c0.688-0.369,1.32-0.85,1.875-1.438c2.777-2.949,2.637-7.609-0.313-10.387c-0.301-0.283-0.625-0.533-0.961-0.76
			c-1.201-0.803-2.609-1.24-4.076-1.24C303.89,190.893,303.015,191.063,302.198,191.371z"/>
		<path fill="none" d="M275.673,393.143h-8.783h-29.434h-8.861h-31.6h-8.781h-18.678c-12.473,0-21.527,8.156-21.527,19.393
			c0,11.24,9.055,19.396,21.527,19.396h117.471c12.473,0,21.525-8.156,21.525-19.396c0-11.236-9.053-19.393-21.525-19.393H275.673z"
			/>
		<path fill="none" d="M280.69,176.99c1.303,1.146,2.773,2.104,4.379,2.82c0.453,0.201,0.916,0.381,1.389,0.543
			c1.225,0.424,2.504,0.729,3.836,0.867c0.59,0.061,1.186,0.094,1.791,0.094c0.561,0,1.113-0.033,1.658-0.084
			c1.248-0.121,2.455-0.373,3.611-0.746c0.234-0.074,0.459-0.166,0.688-0.252c2.092-0.771,3.99-1.932,5.613-3.402
			c3.492-3.162,5.705-7.717,5.705-12.791V115.17c0-9.527-7.75-17.275-17.275-17.275s-17.275,7.748-17.275,17.275v48.869
			C274.81,169.197,277.095,173.822,280.69,176.99z"/>
		<path fill="none" d="M298.772,211.176c0.066-0.105,0.137-0.227,0.205-0.34c-0.248-0.115-0.492-0.232-0.732-0.361
			c-0.07,0.166-0.139,0.332-0.209,0.492C298.284,211.031,298.528,211.105,298.772,211.176z"/>
		<path fill="#102D51" d="M304.749,213.875c0.318-0.545,0.641-1.154,0.959-1.799c3.479-0.234,6.787-1.768,9.189-4.316
			c5.248-5.574,4.984-14.377-0.586-19.623c-1.953-1.838-4.355-3.051-6.945-3.535c-0.199-0.645-0.406-1.254-0.621-1.824
			c5.563-4.361,9.148-11.137,9.148-18.738V115.17c0-13.129-10.68-23.809-23.809-23.809c-13.127,0-23.809,10.68-23.809,23.809v48.869
			c0,7.465,3.457,14.135,8.85,18.504c-1.77,3.621-3.389,8.742-3.34,15.4c0.064,8.225,2.127,13.83,3.889,17.143
			c-5.707,4.354-9.398,11.221-9.398,18.938v5.854c0,13.127,10.682,23.809,23.809,23.809c3.145,0,6.145-0.619,8.893-1.73
			c3.139,15.805,4.873,32.98,4.873,50.604c0,22.512-6.938,53.65-11.893,74.719c-2.209-0.482-4.535-0.74-6.951-0.74h-11.334
			c-0.002-18.645-0.004-37.289-0.01-55.936c0-1.174,0.084-2.367-0.092-3.521c-0.334-2.201-2.281-3.717-4.467-3.648
			c-1.98,0.061-3.777,1.557-4.119,3.596c-0.168,1.021-0.098,2.084-0.102,3.129c-0.002,18.793,0.004,37.588,0.006,56.381h-29.498
			c-0.012-22.082-0.008-44.162-0.012-66.244c0-1.045,0.078-2.098-0.025-3.133c-0.279-2.746-2.105-4.557-4.529-4.602
			c-2.445-0.043-4.088,1.727-4.213,4.682c-0.084,1.957-0.025,3.918-0.025,5.879c0.002,21.139,0.006,42.277,0.008,63.418h-31.602
			c0.002-18.768,0.002-37.535-0.004-56.301c0-1.174,0.064-2.375-0.15-3.516c-0.369-1.947-1.922-3.15-3.918-3.283
			c-1.857-0.121-3.439,0.666-4.057,2.502c-0.484,1.445-0.619,3.057-0.623,4.596c-0.035,18.668-0.027,37.334-0.027,56.002h-18.678
			c-2.859,0-5.59,0.361-8.152,1.029c-2.246-6.865-6.057-12.98-10.453-18.945c-3.057-4.148-16.457-27.818-19.514-31.975
			c-7.428-13.662-15.043-28.777-13.41-29.271c4.932-1.467,9.443-2.623,13.834-4.15c8.947-3.117,17.016-7.771,23.43-15.031
			c4.986-5.645,8.094-12.133,7.986-19.918c-0.057-4.182-1.232-8.156-2.953-11.869c-1.758-3.797-3.967-7.375-6.109-11.281
			c0.002-0.004,0.006-0.008,0.008-0.012c-0.189-0.277-0.361-0.533-0.521-0.777c1.336-0.574,2.766-1.111,4.201-1.602
			c3.094,9.561,12.078,16.496,22.656,16.496c13.127,0,23.807-10.68,23.807-23.807v-5.855c0-8.477-4.455-15.928-11.145-20.148
			c0.318-0.545,0.641-1.154,0.959-1.799c3.479-0.232,6.787-1.766,9.189-4.316c5.248-5.572,4.986-14.375-0.586-19.621
			c-1.951-1.84-4.355-3.051-6.945-3.537c-0.199-0.643-0.406-1.254-0.621-1.824c5.564-4.361,9.148-11.137,9.148-18.738V99.678
			c0-13.129-10.68-23.809-23.807-23.809c-13.129,0-23.811,10.68-23.811,23.809v59.906c0,7.465,3.457,14.137,8.852,18.504
			c-1.771,3.621-3.391,8.742-3.34,15.4c0.064,8.225,2.125,13.83,3.889,17.145c-5.707,4.354-9.4,11.219-9.4,18.936v5.855
			c0,0.393,0.012,0.785,0.031,1.174c-3.871,1.189-7.781,2.768-10.691,5.148c-1.43,0.402-2.883,0.043-4.684-1.08
			c-3.639-2.27-6.299-5.436-8.057-9.379c-2.217-4.969-3.678-10.186-3.73-15.648c-0.049-5.186,0.354-10.373,0.529-15.559
			c0.428-12.584-0.074-25.111-2.535-37.48c-1.223-6.162-3.068-12.135-6.057-17.697c-5.137-9.559-13.998-12.006-23.313-9.037
			c-4.432,1.412-6.992,4.893-7.445,9.604c-0.289,3-0.096,6.066,0.102,9.088c0.199,3.012,0.846,5.998,0.988,9.012
			c0.348,7.135,0.645,14.277,0.715,21.422c0.111,11.162,0.031,22.328,0.006,33.494c-0.025,12.236,0.348,24.438,1.824,36.607
			c1.186,9.807,3.121,19.426,6.133,28.777c2.93,9.096,6.047,16.723,10.393,25.102c0.037-0.008,0.063-0.014,0.098-0.021
			c4.314,10.373,18.779,38.541,26.039,51.373c3.871,5.262,7.975,13.695,11.785,18.996c2.527,3.512,3.701,7.459,4.627,11.604
			c-7.398,4.586-12.08,12.393-12.08,21.613c0,14.824,12.094,26.002,28.131,26.002h117.471c16.037,0,28.131-11.178,28.131-26.002
			c0-10.043-5.559-18.408-14.129-22.762c7.879-35.77,14.994-68.322,10.83-104.439c-1.078-9.209-3.213-18.164-4.678-27.045
			c5.326-4.371,8.732-11,8.732-18.412v-5.854C315.894,225.547,311.437,218.096,304.749,213.875z M197.321,187.678
			c0.338,0.227,0.662,0.477,0.963,0.76c2.949,2.777,3.088,7.438,0.311,10.389c-0.555,0.588-1.188,1.066-1.875,1.438
			c-1.055,0.568-2.238,0.873-3.479,0.873c-1.146,0-2.258-0.268-3.264-0.768c-0.475-0.236-0.924-0.525-1.342-0.863
			c-0.146-0.119-0.291-0.238-0.43-0.369c-1.43-1.346-2.25-3.168-2.309-5.129c-0.059-1.963,0.65-3.83,1.996-5.26
			c0.344-0.363,0.717-0.686,1.113-0.967c0.51-0.363,1.064-0.648,1.646-0.867c0.816-0.307,1.689-0.475,2.594-0.475
			C194.714,186.439,196.12,186.877,197.321,187.678z M187.429,206.381c-0.068,0.113-0.139,0.234-0.205,0.34
			c-0.244-0.07-0.488-0.145-0.736-0.209c0.07-0.16,0.141-0.324,0.209-0.492C186.937,206.148,187.183,206.266,187.429,206.381z
			 M163.261,159.584V99.678c0-9.525,7.75-17.275,17.277-17.275c9.525,0,17.273,7.75,17.273,17.275v59.906
			c0,5.074-2.211,9.629-5.705,12.791c-1.623,1.469-3.52,2.631-5.609,3.402c-0.23,0.086-0.457,0.178-0.689,0.254
			c-1.156,0.371-2.365,0.625-3.613,0.744c-0.545,0.053-1.098,0.084-1.656,0.084c-0.605,0-1.203-0.033-1.793-0.094
			c-1.33-0.139-2.609-0.443-3.834-0.865c-0.473-0.164-0.938-0.342-1.391-0.545c-1.604-0.717-3.076-1.674-4.379-2.82
			C165.546,169.367,163.261,164.742,163.261,159.584z M181.517,201.197c-0.557,1.842-1.24,3.363-1.904,4.586
			c-0.051,0.002-0.102,0-0.152,0.004c-1.154-2.676-2.34-6.811-2.385-12.6c-0.029-4.014,0.662-7.291,1.568-9.877
			c0.625,0.049,1.256,0.082,1.895,0.082c0.354,0,0.705-0.012,1.057-0.027c0.18,0.676,0.342,1.406,0.49,2.18
			c-1.85,2.494-2.813,5.508-2.717,8.658C179.444,196.727,180.2,199.119,181.517,201.197z M172.923,207.016
			c-0.375,0.127-0.744,0.262-1.109,0.406c-1.311-2.523-2.988-7.076-3.043-13.984c-0.039-5.188,1.123-9.156,2.406-11.965
			c0.35,0.148,0.701,0.289,1.057,0.424c-1.008,3.098-1.725,6.879-1.689,11.34C170.589,199.141,171.667,203.684,172.923,207.016z
			 M163.261,229.568c0-7.949,5.406-14.645,12.729-16.648c0.881-0.24,1.785-0.43,2.717-0.527c0.346-0.037,0.699-0.045,1.053-0.061
			c0.26-0.012,0.516-0.039,0.779-0.039c0.838,0,1.656,0.08,2.465,0.195c8.357,1.203,14.809,8.393,14.809,17.08v5.855
			c0,9.523-7.748,17.273-17.273,17.273c-7.641,0-14.127-4.988-16.4-11.875c-0.508-1.539-0.797-3.172-0.85-4.865
			c-0.006-0.178-0.027-0.354-0.027-0.533V229.568z M114.479,300.275c-1.275-3.049-2.582-6.104-3.842-9.176
			c-4.531-11.035-7.457-22.527-8.965-34.375c-0.695-5.457-1.211-10.965-1.41-16.465c-0.367-10.168-0.518-20.346-0.617-30.521
			c-0.104-9.969,0.125-19.945-0.092-29.914c-0.166-7.672-0.783-15.334-1.234-23c-0.176-3.018-0.596-6.031-0.623-9.047
			c-0.031-3.842,1.621-5.521,5.33-5.891c5.912-0.59,9.605,1.521,12.494,6.885c3.008,5.582,4.516,11.645,5.686,17.816
			c2.096,11.012,2.295,22.148,1.908,33.313c-0.189,5.404-0.795,10.826-0.514,16.203c0.461,8.768,2.797,17.039,8.014,24.252
			c2.871,3.965,6.563,6.738,11.158,8.178c1.287,0.402,2.705,0.563,4.053,0.518c1.41-0.049,2.424,0.297,3.252,1.504
			c3.252,4.746,5.854,9.826,6.975,15.523c0.779,3.938-0.201,7.748-1.846,11.354c-1.975,4.324-5.059,7.742-8.725,10.584
			c-8.461,6.555-18.154,10.082-28.537,11.838C116.224,299.975,115.501,300.1,114.479,300.275z M308.532,412.535
			c0,11.24-9.053,19.396-21.525,19.396H169.536c-12.473,0-21.527-8.156-21.527-19.396c0-11.236,9.055-19.393,21.527-19.393h18.678
			h8.781h31.6h8.861h29.434h8.783h11.334C299.479,393.143,308.532,401.299,308.532,412.535z M308.87,192.133
			c0.336,0.227,0.66,0.477,0.961,0.76c2.949,2.777,3.09,7.438,0.313,10.387c-0.555,0.588-1.188,1.068-1.875,1.438
			c-1.055,0.568-2.24,0.875-3.479,0.875c-1.146,0-2.26-0.268-3.264-0.768c-0.475-0.236-0.924-0.525-1.342-0.863
			c-0.146-0.119-0.293-0.24-0.432-0.369c-1.43-1.346-2.248-3.168-2.307-5.129c-0.059-1.963,0.65-3.83,1.996-5.26
			c0.342-0.363,0.715-0.686,1.111-0.967c0.512-0.363,1.064-0.648,1.645-0.865c0.816-0.309,1.691-0.479,2.596-0.479
			C306.261,190.893,307.669,191.33,308.87,192.133z M298.978,210.836c-0.068,0.113-0.139,0.234-0.205,0.34
			c-0.244-0.07-0.488-0.145-0.736-0.209c0.07-0.16,0.139-0.326,0.209-0.492C298.485,210.604,298.729,210.721,298.978,210.836z
			 M274.81,164.039V115.17c0-9.527,7.75-17.275,17.275-17.275s17.275,7.748,17.275,17.275v48.869c0,5.074-2.213,9.629-5.705,12.791
			c-1.623,1.471-3.521,2.631-5.613,3.402c-0.229,0.086-0.453,0.178-0.688,0.252c-1.156,0.373-2.363,0.625-3.611,0.746
			c-0.545,0.051-1.098,0.084-1.658,0.084c-0.605,0-1.201-0.033-1.791-0.094c-1.332-0.139-2.611-0.443-3.836-0.867
			c-0.473-0.162-0.936-0.342-1.389-0.543c-1.605-0.717-3.076-1.674-4.379-2.82C277.095,173.822,274.81,169.197,274.81,164.039z
			 M293.065,205.652c-0.559,1.842-1.24,3.363-1.906,4.584c-0.055,0.004-0.111,0.002-0.166,0.006
			c-1.148-2.662-2.324-6.789-2.369-12.6c-0.031-4.014,0.66-7.293,1.568-9.877c0.625,0.049,1.256,0.082,1.893,0.082
			c0.355,0,0.707-0.012,1.057-0.027c0.18,0.674,0.344,1.406,0.49,2.18c-1.848,2.492-2.811,5.508-2.717,8.658
			C290.991,201.182,291.747,203.574,293.065,205.652z M284.47,211.471c-0.373,0.125-0.742,0.262-1.107,0.406
			c-1.313-2.523-2.988-7.076-3.043-13.984c-0.039-5.188,1.121-9.156,2.406-11.965c0.348,0.148,0.699,0.289,1.057,0.422
			c-1.01,3.1-1.725,6.879-1.691,11.342C282.136,203.594,283.214,208.139,284.47,211.471z M309.36,239.877
			c0,4.57-1.797,8.719-4.703,11.811c-1.443,1.535-3.162,2.803-5.078,3.73c-2.27,1.1-4.807,1.734-7.494,1.734
			c-9.525,0-17.275-7.75-17.275-17.275v-5.854c0-7.951,5.404-14.645,12.727-16.648c0.875-0.24,1.77-0.426,2.691-0.523
			c0.355-0.039,0.717-0.049,1.078-0.064c0.26-0.012,0.518-0.041,0.779-0.041c0.84,0,1.658,0.082,2.467,0.197
			c8.357,1.203,14.809,8.393,14.809,17.08V239.877z"/>
		<path fill="#102D51" d="M236.253,260.689c13.127,0,23.807-10.68,23.807-23.807v-5.855c0-8.119-4.088-15.301-10.313-19.6
			c0.043-0.084,0.086-0.174,0.129-0.26c3.477-0.234,6.787-1.768,9.188-4.318c5.248-5.572,4.986-14.375-0.586-19.621
			c-1.951-1.84-4.355-3.051-6.943-3.537c-0.201-0.643-0.406-1.252-0.621-1.824c5.563-4.361,9.146-11.137,9.146-18.736V73.26
			c0-13.127-10.68-23.809-23.807-23.809c-13.129,0-23.809,10.682-23.809,23.809v89.871c0,7.465,3.455,14.135,8.85,18.502
			c-1.771,3.621-3.391,8.742-3.34,15.4c0.057,7.084,1.594,12.234,3.145,15.645c-5.283,4.371-8.654,10.973-8.654,18.35v5.855
			C212.444,250.01,223.124,260.689,236.253,260.689z M253.036,191.223c0.338,0.227,0.662,0.477,0.963,0.762
			c2.949,2.777,3.088,7.438,0.309,10.387c-0.553,0.588-1.186,1.066-1.873,1.438c-1.055,0.568-2.238,0.873-3.479,0.873
			c-1.146,0-2.258-0.268-3.262-0.766c-0.477-0.236-0.926-0.527-1.344-0.865c-0.146-0.117-0.291-0.238-0.43-0.369
			c-1.43-1.346-2.25-3.166-2.309-5.129s0.65-3.83,1.996-5.26c0.344-0.363,0.717-0.684,1.113-0.967
			c0.51-0.361,1.064-0.648,1.646-0.867c0.816-0.307,1.689-0.475,2.594-0.475C250.429,189.984,251.837,190.422,253.036,191.223z
			 M218.978,163.131V73.26c0-9.525,7.748-17.275,17.275-17.275c9.525,0,17.273,7.75,17.273,17.275v89.871
			c0,5.072-2.211,9.627-5.705,12.791c-1.623,1.469-3.52,2.629-5.609,3.402c-0.23,0.084-0.457,0.176-0.689,0.252
			c-1.156,0.371-2.365,0.625-3.613,0.744c-0.545,0.053-1.098,0.084-1.656,0.084c-0.605,0-1.203-0.033-1.793-0.094
			c-1.33-0.137-2.609-0.441-3.834-0.865c-0.473-0.164-0.938-0.342-1.391-0.545c-1.605-0.717-3.076-1.672-4.377-2.82
			C221.261,172.912,218.978,168.289,218.978,163.131z M237.233,204.742c-0.275,0.904-0.578,1.725-0.896,2.479
			c-0.027,0-0.057-0.002-0.084-0.002c-0.627,0-1.244,0.031-1.859,0.08c-0.852-2.586-1.568-6.066-1.602-10.566
			c-0.031-4.014,0.66-7.291,1.566-9.877c0.627,0.049,1.256,0.082,1.895,0.082c0.354,0,0.705-0.012,1.057-0.027
			c0.18,0.676,0.342,1.406,0.49,2.182c-1.85,2.492-2.811,5.508-2.717,8.656C235.159,200.271,235.915,202.666,237.233,204.742z
			 M228.001,208.695c-0.438,0.162-0.869,0.34-1.295,0.527c-1.098-2.668-2.176-6.682-2.219-12.24
			c-0.041-5.188,1.121-9.154,2.406-11.965c0.348,0.15,0.699,0.291,1.055,0.424c-1.008,3.098-1.725,6.879-1.689,11.342
			C226.296,201.652,227.04,205.588,228.001,208.695z M218.978,231.027c0-7.539,4.859-13.947,11.605-16.301
			c0.99-0.346,2.018-0.598,3.08-0.76c0.846-0.127,1.707-0.215,2.59-0.215c0.139,0,0.273,0.018,0.41,0.021
			c1.15,0.027,2.273,0.162,3.357,0.404c1.23,0.275,2.408,0.689,3.527,1.213c0.902,0.422,1.766,0.912,2.574,1.479
			c4.471,3.127,7.404,8.303,7.404,14.158v5.855c0,9.525-7.748,17.273-17.273,17.273c-9.527,0-17.275-7.748-17.275-17.273V231.027z"
			/>
	</g>
</g>
<path fill="#102D51" d="M458.155,168.975c-11.832-21.141-28.313-40.285-48.986-56.904c-35.111-28.225-69.693-39.227-71.148-39.682
	c-1.846-0.574-3.809,0.453-4.385,2.297c-0.576,1.846,0.453,3.809,2.297,4.385c0.033,0.012,0.398,0.127,1.045,0.348
	c5.998,2.049,37.031,13.371,67.807,38.109c45.582,36.639,68.693,83.588,68.693,139.537c0,59.004-23.01,106.174-68.389,140.197
	c-27.006,20.248-54.322,29.543-64.611,32.557V105.109c7.912,3.496,24.766,12.033,41.553,27.469
	c30.717,28.244,46.291,64.758,46.291,108.523c0,7.973-0.313,15.479-0.889,22.545h-61.611c-1.934,0-3.5,1.566-3.5,3.5v112.162
	c0,1.113,0.529,2.16,1.426,2.818c0.896,0.66,2.057,0.854,3.115,0.521c0.715-0.223,17.684-5.689,34.65-26.1
	c12.773-15.365,27.578-42.072,32.287-85.902h15.658c0.229,11.537-0.891,51.879-25.168,86.289
	c-28.313,40.125-60.678,45.6-60.992,45.648c-1.912,0.289-3.227,2.072-2.938,3.982c0.262,1.734,1.754,2.979,3.457,2.979
	c0.174,0,0.35-0.014,0.525-0.039c1.438-0.217,35.516-5.805,65.666-48.535c30.02-42.549,26.467-92.018,26.301-94.104
	c-0.145-1.818-1.664-3.221-3.488-3.221h-18.367c0.563-7.086,0.867-14.598,0.867-22.545c0-57.055-26.404-93.309-48.553-113.676
	c-23.967-22.037-47.639-30.484-48.635-30.834c-0.068-0.023-0.141-0.029-0.211-0.051c-0.119-0.033-0.24-0.066-0.359-0.086
	c-0.121-0.021-0.246-0.029-0.373-0.037c-0.072-0.006-0.141-0.021-0.213-0.021c-0.035,0-0.068,0.008-0.102,0.01
	c-0.129,0.004-0.256,0.021-0.381,0.037c-0.105,0.016-0.211,0.027-0.316,0.053c-0.107,0.025-0.213,0.063-0.316,0.098
	c-0.111,0.037-0.223,0.074-0.33,0.121c-0.096,0.045-0.186,0.1-0.275,0.15c-0.104,0.059-0.207,0.115-0.303,0.184
	c-0.09,0.063-0.17,0.137-0.254,0.209c-0.086,0.074-0.172,0.145-0.25,0.227s-0.145,0.17-0.213,0.258
	c-0.072,0.092-0.145,0.18-0.207,0.279c-0.057,0.088-0.104,0.184-0.15,0.277c-0.059,0.113-0.115,0.225-0.162,0.346
	c-0.014,0.033-0.033,0.061-0.045,0.094c-0.023,0.072-0.031,0.145-0.051,0.215c-0.033,0.119-0.066,0.236-0.086,0.355
	c-0.021,0.123-0.031,0.25-0.037,0.379c-0.006,0.07-0.021,0.137-0.021,0.209v334.498c0,0.012,0.004,0.023,0.004,0.037
	c0,0.115,0.021,0.225,0.033,0.338c0.014,0.125,0.02,0.248,0.047,0.373c0.002,0.012,0.002,0.023,0.004,0.033
	c0.041,0.178,0.1,0.346,0.166,0.51c0.012,0.031,0.02,0.063,0.033,0.094c0.082,0.189,0.182,0.371,0.295,0.543
	c0.033,0.051,0.074,0.094,0.109,0.143c0.09,0.123,0.184,0.24,0.289,0.35c0.051,0.055,0.109,0.104,0.164,0.152
	c0.1,0.092,0.201,0.178,0.311,0.258c0.068,0.049,0.137,0.094,0.207,0.137c0.109,0.068,0.225,0.129,0.342,0.186
	c0.076,0.035,0.15,0.07,0.227,0.102c0.135,0.051,0.273,0.092,0.414,0.129c0.066,0.016,0.131,0.037,0.197,0.051
	c0.215,0.041,0.432,0.066,0.654,0.066c0.018,0,0.037-0.006,0.055-0.006c0.229-0.004,0.463-0.027,0.695-0.078
	c0.012-0.004,0.023-0.002,0.033-0.004c1.459-0.334,36.127-8.473,71.316-34.783c20.715-15.488,37.23-34.074,49.082-55.238
	c14.813-26.447,22.322-56.971,22.322-90.721C480.478,225.074,472.968,195.436,458.155,168.975z M396.462,351.672
	c-10.594,12.877-21.285,19.428-27.141,22.334V270.646h57.439C422.188,312.01,408.386,337.178,396.462,351.672z"/>
<g>
	<path fill="#102D51" d="M186.691,545.829h-0.943c-0.942,0-1.602-0.849-1.602-1.791v-64.113c0-0.472-0.283-0.66-0.66-0.66
		c-0.472,0-0.566,0.188-0.943,0.849l-16.311,34.413c-1.32,2.734-2.734,3.395-4.809,3.395s-3.488-0.66-4.809-3.395l-16.312-34.413
		c-0.377-0.66-0.472-0.849-0.942-0.849c-0.377,0-0.66,0.188-0.66,0.66v64.113c0,0.942-0.66,1.791-1.604,1.791h-0.942
		c-0.942,0-1.603-0.849-1.603-1.791v-64.113c0-3.111,1.885-4.62,4.809-4.62c2.263,0,3.582,1.32,4.337,2.923l16.499,34.603
		c0.377,0.849,0.66,1.226,1.227,1.226c0.565,0,0.848-0.377,1.225-1.226l16.5-34.603c0.755-1.603,2.074-2.923,4.338-2.923
		c2.922,0,4.809,1.509,4.809,4.62v64.113C188.295,544.98,187.635,545.829,186.691,545.829z"/>
	<path fill="#102D51" d="M238.071,545.829H237.6c-1.037,0-1.885-0.849-1.885-1.886v-2.357c-4.621,2.546-10.184,4.809-16.029,4.809
		c-7.07,0-14.425-3.394-14.425-15.18v-1.226c0-9.711,6.128-14.52,23.288-14.52h7.26v-3.395c0-9.806-2.734-13.671-11.88-13.671
		c-6.223,0-8.957,0.377-13.388,0.849c-0.943,0.094-2.169,0-2.169-1.414v-0.566c0-1.226,0.755-1.508,2.169-1.696
		c3.959-0.472,7.165-0.849,13.388-0.849c12.729,0,16.028,7.165,16.028,17.348v31.868
		C239.957,544.98,239.108,545.829,238.071,545.829z M235.809,519.146h-7.26c-14.236,0-19.14,2.829-19.14,10.843v1.226
		c0,8.769,4.62,11.503,10.276,11.503c5.28,0,9.807-1.414,16.123-4.809V519.146z"/>
	<path fill="#102D51" d="M275.875,546.395c-12.916,0-19.422-8.297-19.422-22.533v-6.601c0-14.236,6.506-22.533,19.422-22.533
		c12.917,0,19.423,8.297,19.423,22.533v6.601C295.298,538.098,288.792,546.395,275.875,546.395z M291.149,517.261
		c0-11.597-4.243-18.856-15.274-18.856s-15.273,7.26-15.273,18.856v6.601c0,11.597,4.242,18.856,15.273,18.856
		s15.274-7.26,15.274-18.856V517.261z"/>
	<path fill="#102D51" d="M333.007,546.583c-6.977,0-12.728-1.037-18.103-2.356c-0.942-0.188-1.791-0.849-1.791-1.792v-5.846
		c0-1.037,0.754-1.696,1.697-1.696c0.094,0,0.094,0,0.188,0c7.448,0.754,13.482,1.319,18.008,1.319
		c7.638,0,10.561-3.394,10.561-9.994v-1.979c0-4.997-1.509-9.522-8.675-9.522h-16.688c-1.037,0-1.791-0.755-1.791-1.792v-5.939
		c0-1.037,0.754-1.792,1.791-1.792h16.688c7.166,0,8.675-4.242,8.675-9.239v-1.509c0-4.809-1.886-9.052-10.561-9.052
		c-6.694,0-9.711,0.472-18.008,1.32c-0.095,0-0.095,0-0.188,0c-0.943,0-1.697-0.66-1.697-1.697v-5.846
		c0-0.942,0.849-1.603,1.791-1.791c5.375-1.32,11.126-2.357,18.103-2.357c13.577,0,23.666,5.186,23.666,19.423v1.509
		c0,6.6-3.018,11.22-8.108,13.954c5.186,2.828,8.108,8.297,8.108,14.331v1.979C356.673,540.267,346.396,546.583,333.007,546.583z"/>
	<path fill="#102D51" d="M392.684,546.583c-6.694,0-15.745-0.659-18.574-1.131c-1.603-0.283-2.451-1.037-2.451-2.923v-63.453
		c0-1.886,0.849-2.64,2.451-2.923c2.829-0.472,11.88-1.132,18.574-1.132c18.856,0,29.605,10.183,29.605,28.852v13.859
		C422.289,536.4,411.54,546.583,392.684,546.583z M409.277,503.873c0-14.143-7.165-17.82-16.594-17.82
		c-3.488,0-5.939,0.188-7.92,0.283v48.934c1.98,0.094,4.432,0.282,7.92,0.282c9.429,0,16.594-3.677,16.594-17.819V503.873z"/>
</g>
</svg>
